<svg xmlns="http://www.w3.org/2000/svg" viewBox="0 0 1200 760" width="1200" height="760" role="img" aria-label="AI document automation pipeline mockup">
  <defs>
    <linearGradient id="doc-bg" x1="0" y1="0" x2="1" y2="1">
      <stop offset="0" stop-color="#0d1512"/>
      <stop offset="1" stop-color="#0c0c0c"/>
    </linearGradient>
    <radialGradient id="doc-glow" cx="0.3" cy="0" r="0.9">
      <stop offset="0" stop-color="#326d6d" stop-opacity="0.4"/>
      <stop offset="1" stop-color="#326d6d" stop-opacity="0"/>
    </radialGradient>
  </defs>
  <rect width="1200" height="760" fill="url(#doc-bg)"/>
  <rect width="1200" height="760" fill="url(#doc-glow)"/>

  <rect x="80" y="70" width="1040" height="620" rx="20" fill="#12181a" stroke="rgba(255,255,255,0.08)"/>
  <circle cx="116" cy="106" r="7" fill="#ff5f57"/>
  <circle cx="140" cy="106" r="7" fill="#febc2e"/>
  <circle cx="164" cy="106" r="7" fill="#28c840"/>
  <text x="600" y="111" text-anchor="middle" fill="rgba(255,255,255,0.4)" font-family="monospace" font-size="13">document-pipeline</text>

  <!-- pipeline stages -->
  <g font-family="sans-serif" font-size="13">
    <rect x="112" y="150" width="180" height="40" rx="20" fill="rgba(255,255,255,0.05)"/>
    <text x="202" y="175" text-anchor="middle" fill="rgba(255,255,255,0.7)">Ingest</text>
    <text x="308" y="175" text-anchor="middle" fill="#326d6d" font-size="18">→</text>
    <rect x="324" y="150" width="180" height="40" rx="20" fill="rgba(255,255,255,0.05)"/>
    <text x="414" y="175" text-anchor="middle" fill="rgba(255,255,255,0.7)">Classify</text>
    <text x="520" y="175" text-anchor="middle" fill="#326d6d" font-size="18">→</text>
    <rect x="536" y="150" width="180" height="40" rx="20" fill="rgba(50,109,109,0.28)" stroke="rgba(103,232,249,0.4)"/>
    <text x="626" y="175" text-anchor="middle" fill="#67e8f9" font-weight="600">Extract</text>
    <text x="732" y="175" text-anchor="middle" fill="#326d6d" font-size="18">→</text>
    <rect x="748" y="150" width="180" height="40" rx="20" fill="rgba(255,255,255,0.05)"/>
    <text x="838" y="175" text-anchor="middle" fill="rgba(255,255,255,0.7)">Validate</text>
    <text x="944" y="175" text-anchor="middle" fill="#326d6d" font-size="18">→</text>
    <rect x="960" y="150" width="60" height="40" rx="20" fill="rgba(40,200,64,0.18)"/>
    <text x="990" y="175" text-anchor="middle" fill="#28c840">Route</text>
  </g>

  <!-- document preview -->
  <rect x="112" y="222" width="420" height="436" rx="14" fill="#f4f4f0" opacity="0.95"/>
  <rect x="146" y="258" width="200" height="16" rx="4" fill="#0c0c0c" opacity="0.75"/>
  <rect x="146" y="292" width="352" height="8" rx="4" fill="#0c0c0c" opacity="0.2"/>
  <rect x="146" y="312" width="352" height="8" rx="4" fill="#0c0c0c" opacity="0.2"/>
  <rect x="146" y="332" width="280" height="8" rx="4" fill="#0c0c0c" opacity="0.2"/>
  <rect x="146" y="378" width="150" height="10" rx="4" fill="#326d6d" opacity="0.5"/>
  <rect x="146" y="404" width="352" height="8" rx="4" fill="#0c0c0c" opacity="0.15"/>
  <rect x="146" y="424" width="352" height="8" rx="4" fill="#0c0c0c" opacity="0.15"/>
  <!-- highlighted extracted fields -->
  <rect x="300" y="470" width="140" height="26" rx="6" fill="rgba(50,109,109,0.25)" stroke="#326d6d"/>
  <rect x="146" y="510" width="200" height="26" rx="6" fill="rgba(50,109,109,0.25)" stroke="#326d6d"/>
  <rect x="146" y="590" width="120" height="30" rx="6" fill="rgba(50,109,109,0.25)" stroke="#326d6d"/>

  <!-- extracted fields panel -->
  <rect x="560" y="222" width="460" height="436" rx="14" fill="rgba(255,255,255,0.02)" stroke="rgba(255,255,255,0.05)"/>
  <text x="588" y="258" fill="rgba(255,255,255,0.5)" font-family="sans-serif" font-size="13" font-weight="600">Extracted fields</text>
  <text x="990" y="258" text-anchor="end" fill="#28c840" font-family="sans-serif" font-size="12">14 / 14 · 0.98</text>
  <g font-family="sans-serif" font-size="13">
    <g>
      <text x="588" y="308" fill="rgba(255,255,255,0.4)">Invoice #</text>
      <rect x="720" y="294" width="272" height="22" rx="6" fill="rgba(255,255,255,0.05)"/>
      <text x="736" y="310" fill="#fff">INV-20268-4471</text>
    </g>
    <g>
      <text x="588" y="356" fill="rgba(255,255,255,0.4)">Vendor</text>
      <rect x="720" y="342" width="272" height="22" rx="6" fill="rgba(255,255,255,0.05)"/>
      <text x="736" y="358" fill="#fff">Northwind Ltd.</text>
    </g>
    <g>
      <text x="588" y="404" fill="rgba(255,255,255,0.4)">Amount</text>
      <rect x="720" y="390" width="272" height="22" rx="6" fill="rgba(255,255,255,0.05)"/>
      <text x="736" y="406" fill="#fff">$42,318.00</text>
    </g>
    <g>
      <text x="588" y="452" fill="rgba(255,255,255,0.4)">Due date</text>
      <rect x="720" y="438" width="272" height="22" rx="6" fill="rgba(255,255,255,0.05)"/>
      <text x="736" y="454" fill="#fff">2026-07-30</text>
    </g>
    <g>
      <text x="588" y="500" fill="rgba(255,255,255,0.4)">Tax ID</text>
      <rect x="720" y="486" width="272" height="22" rx="6" fill="rgba(255,255,255,0.05)"/>
      <text x="736" y="502" fill="#fff">GB 421 8834 02</text>
    </g>
  </g>
  <!-- routed status -->
  <rect x="588" y="556" width="404" height="72" rx="12" fill="rgba(40,200,64,0.1)" stroke="rgba(40,200,64,0.3)"/>
  <circle cx="618" cy="592" r="14" fill="rgba(40,200,64,0.2)"/>
  <path d="M611 592 l5 5 l9 -10" fill="none" stroke="#28c840" stroke-width="2.5" stroke-linecap="round" stroke-linejoin="round"/>
  <text x="648" y="586" fill="#fff" font-family="sans-serif" font-size="14" font-weight="600">Routed → accounts-payable</text>
  <text x="648" y="608" fill="rgba(255,255,255,0.45)" font-family="sans-serif" font-size="12">Processed in 1.2s · no manual review</text>
</svg>
